# xmcd
#
# Track frame offsets:
# 150
# 6438
# 27120
# 49410
# 68385
# 87919
# 106459
# 125127
# 145084
# 162833
# 175960
# 194418
# 208973
# 231063
#
# Disc length: 3365 seconds
#
#
# Revision: 3
# Processed by: cddbd v1.5.2PL0 Copyright (c) Steve Scherf et al.
# Submitted via: FreeRIP 2.951 
#
DISCID=c50d230e
DTITLE=Jay Z - The Black Album
DYEAR=2003
DGENRE=Rap
TTITLE0=Interlude
TTITLE1=December 4
TTITLE2=What More Can I Say
TTITLE3=Encore
TTITLE4=Change Clothes
TTITLE5=Dirt Off Your Shoulder
TTITLE6=Threat
TTITLE7=Moment of Clarity
TTITLE8=99 Problems
TTITLE9=Interlude
TTITLE10=Justify My Thug
TTITLE11=Lucifer
TTITLE12=Allure
TTITLE13=My First Song
EXTD=
EXTT0=
EXTT1=
EXTT2=
EXTT3=
EXTT4=
EXTT5=
EXTT6=
EXTT7=
EXTT8=
EXTT9=
EXTT10=
EXTT11=
EXTT12=
EXTT13=
PLAYORDER=
